<?xml version="1.0" standalone="no"?><!DOCTYPE svg PUBLIC "-//W3C//DTD SVG 1.1//EN" "http://www.w3.org/Graphics/SVG/1.1/DTD/svg11.dtd"><svg t="1679624942047" class="icon" viewBox="0 0 1024 1024" version="1.1" xmlns="http://www.w3.org/2000/svg" p-id="3401" width="16" height="16" xmlns:xlink="http://www.w3.org/1999/xlink"><path d="M1014.4 510.4h-16c-4.8-8-12.8-14.4-22.4-14.4-9.6 0-17.6 4.8-20.8 12.8h-30.4c11.2-12.8 28.8-33.6 28.8-33.6 1.6-1.6 3.2-4.8 3.2-8s-1.6-6.4-4.8-9.6c-4.8-4.8-12.8-3.2-17.6 1.6l-41.6 48h-30.4c17.6-19.2 49.6-54.4 49.6-54.4 1.6-1.6 3.2-4.8 3.2-8s-1.6-6.4-4.8-9.6c-4.8-4.8-12.8-4.8-17.6 1.6l-64 70.4-52.8-1.6c25.6-19.2 75.2-56 75.2-56 3.2-1.6 4.8-6.4 4.8-9.6 0-3.2 0-4.8-3.2-8-4.8-4.8-11.2-6.4-17.6-1.6l-97.6 73.6s-1.6 0-1.6 1.6l-38.4-1.6s-22.4-24-38.4-48l-11.2 8c-3.2 1.6-8 1.6-11.2-1.6-1.6-3.2-1.6-8 1.6-11.2l14.4-9.6-1.6-1.6c-12.8-22.4-20.8-67.2-24-81.6 0-3.2-1.6-6.4-3.2-8l16-25.6 112-36.8c6.4-1.6 9.6-9.6 8-16-1.6-3.2-3.2-4.8-6.4-6.4-3.2-1.6-6.4-1.6-9.6-1.6 0 0-51.2 17.6-83.2 27.2l25.6-41.6 100.8-20.8c6.4-1.6 11.2-8 9.6-14.4 0-3.2-3.2-6.4-6.4-8-3.2-1.6-4.8-1.6-8-1.6 0 0-51.2 9.6-78.4 16l16-27.2 70.4-8c6.4 0 11.2-6.4 11.2-12.8 0-3.2-3.2-8-6.4-9.6-1.6-1.6-4.8-1.6-8-1.6 0 0-30.4 3.2-51.2 6.4l14.4-24c9.6 1.6 17.6-3.2 22.4-11.2 4.8-8 3.2-17.6-1.6-24l11.2-17.6c3.2-4.8 1.6-11.2-3.2-12.8-4.8-3.2-11.2-1.6-14.4 3.2l-11.2 17.6c-9.6-1.6-19.2 3.2-24 11.2-4.8 8-3.2 17.6 1.6 24l-16 25.6c-6.4-16-16-41.6-16-41.6-1.6-3.2-3.2-4.8-4.8-6.4-3.2-1.6-6.4-1.6-9.6 0-6.4 1.6-9.6 9.6-8 16l22.4 59.2-16 25.6c-8-24-24-70.4-24-70.4-1.6-3.2-3.2-4.8-4.8-6.4-3.2-1.6-6.4-1.6-9.6-1.6-6.4 1.6-9.6 9.6-8 16l32 89.6-27.2 44.8c-4.8-32-12.8-92.8-12.8-92.8 0-3.2-3.2-6.4-6.4-9.6-1.6-1.6-4.8-1.6-8-1.6-6.4 1.6-11.2 6.4-11.2 12.8l17.6 120v1.6l-16 25.6h-1.6s-36.8 12.8-75.2 16v19.2c0 4.8-3.2 8-8 8s-8-3.2-8-8v-17.6c-38.4-1.6-81.6-19.2-83.2-19.2h-1.6l-20.8-38.4 24-113.6c1.6-6.4-3.2-12.8-9.6-14.4-3.2 0-6.4 0-8 1.6-3.2 1.6-4.8 4.8-6.4 8 0 0-11.2 54.4-17.6 86.4l-24-43.2 33.6-96c1.6-6.4-1.6-12.8-8-16-3.2-1.6-8 0-9.6 1.6-3.2 1.6-4.8 3.2-4.8 6.4 0 0-17.6 49.6-25.6 75.2l-16-27.2 28.8-64c3.2-6.4 0-12.8-6.4-16-3.2-1.6-8-1.6-11.2 0-1.6 1.6-3.2 3.2-4.8 6.4 0 0-12.8 28.8-20.8 48l-14.4-25.6c6.4-8 6.4-17.6 1.6-25.6-4.8-8-14.4-12.8-22.4-11.2l-14.4-25.6c-3.2-4.8-9.6-6.4-14.4-3.2-4.8 3.2-6.4 8-3.2 12.8l14.4 25.6c-4.8 8-6.4 17.6-1.6 25.6 6.4 6.4 14.4 11.2 22.4 11.2l14.4 25.6c-17.6-3.2-43.2-8-43.2-8-3.2 0-6.4 0-8 1.6-3.2 1.6-4.8 4.8-6.4 8-1.6 6.4 3.2 12.8 9.6 14.4l62.4 11.2 14.4 25.6c-27.2-4.8-73.6-14.4-73.6-14.4-3.2 0-6.4 0-8 1.6-3.2 1.6-4.8 4.8-6.4 8-1.6 6.4 3.2 12.8 9.6 14.4l92.8 19.2 25.6 44.8c-30.4-12.8-84.8-35.2-84.8-35.2-3.2-1.6-8-1.6-11.2 0-1.6 1.6-4.8 3.2-4.8 6.4-3.2 6.4 0 12.8 6.4 16l14.4 6.4 14.4 6.4 84.8 33.6 19.2 33.6c-3.2 3.2-4.8 8-3.2 14.4 1.6 8-3.2 46.4-14.4 68.8l9.6 6.4c3.2 3.2 4.8 8 1.6 11.2-3.2 3.2-8 4.8-11.2 1.6l-8-8c-16 17.6-46.4 41.6-57.6 49.6l-4.8 4.8h-32L208 419.2c-4.8-4.8-12.8-4.8-17.6 0-1.6 1.6-3.2 4.8-3.2 8s1.6 6.4 3.2 9.6c0 0 38.4 35.2 62.4 57.6l-49.6-1.6-64-76.8c-4.8-4.8-12.8-6.4-17.6-1.6-3.2 1.6-4.8 4.8-4.8 9.6 0 3.2 1.6 4.8 3.2 8 0 0 33.6 40 52.8 60.8h-32l-41.6-57.6c-3.2-4.8-11.2-6.4-17.6-3.2-3.2 1.6-4.8 6.4-4.8 9.6 0 3.2 0 4.8 1.6 6.4 0 0 19.2 27.2 32 43.2H81.6c-3.2-9.6-11.2-17.6-22.4-17.6s-19.2 6.4-22.4 16H11.2c-4.8 0-9.6 4.8-9.6 9.6s4.8 9.6 9.6 9.6h28.8c4.8 6.4 11.2 11.2 19.2 11.2s16-3.2 19.2-9.6h30.4C96 523.2 80 540.8 80 540.8c-1.6 1.6-3.2 4.8-3.2 8s1.6 6.4 4.8 9.6c4.8 4.8 12.8 3.2 17.6-1.6l41.6-46.4h30.4c-19.2 19.2-51.2 52.8-51.2 52.8-1.6 1.6-3.2 4.8-3.2 8s1.6 6.4 3.2 9.6c4.8 4.8 12.8 4.8 17.6 0l65.6-68.8 54.4 1.6c-25.6 19.2-78.4 56-78.4 56-3.2 1.6-4.8 6.4-4.8 9.6 0 3.2 0 4.8 1.6 8 3.2 4.8 11.2 6.4 17.6 3.2l9.6-6.4 89.6-64 3.2-3.2h25.6c1.6 1.6 1.6 3.2 3.2 3.2 0 0 27.2 22.4 52.8 52.8l14.4-8c3.2-1.6 8 0 11.2 3.2 1.6 3.2 0 8-3.2 9.6l-12.8 6.4c19.2 30.4 22.4 75.2 22.4 76.8 0 1.6 0 4.8 1.6 6.4L388.8 704l-112 36.8c-6.4 1.6-9.6 9.6-8 16 1.6 3.2 3.2 4.8 6.4 6.4 3.2 1.6 6.4 1.6 9.6 1.6 0 0 54.4-17.6 84.8-28.8l-25.6 43.2-102.4 20.8c-6.4 1.6-11.2 8-9.6 14.4 0 3.2 3.2 6.4 6.4 8 3.2 1.6 4.8 1.6 8 1.6 0 0 52.8-11.2 80-16l-16 27.2-72 8c-6.4 1.6-11.2 6.4-11.2 12.8 0 3.2 3.2 8 6.4 9.6 1.6 1.6 4.8 1.6 8 1.6 0 0 32-3.2 52.8-6.4l-14.4 24c-9.6-1.6-19.2 3.2-24 11.2-4.8 8-3.2 17.6 1.6 25.6l-9.6 14.4c-3.2 4.8-1.6 11.2 3.2 12.8 4.8 3.2 11.2 1.6 14.4-3.2l9.6-16c9.6 0 17.6-3.2 22.4-11.2 4.8-8 3.2-17.6 0-24l14.4-25.6 16 40c1.6 3.2 3.2 4.8 4.8 6.4 3.2 1.6 6.4 1.6 9.6 0 6.4-1.6 9.6-9.6 8-16l-22.4-59.2 16-25.6c8 25.6 24 68.8 24 68.8 1.6 3.2 3.2 4.8 6.4 6.4 3.2 1.6 6.4 1.6 9.6 1.6 6.4-1.6 9.6-9.6 8-16l-30.4-88 27.2-44.8c4.8 32 12.8 89.6 12.8 89.6 0 3.2 3.2 6.4 6.4 9.6 1.6 1.6 4.8 1.6 8 1.6 6.4-1.6 11.2-6.4 11.2-12.8l-17.6-120 22.4-36.8c1.6 0 3.2 0 4.8-1.6 0 0 30.4-11.2 67.2-12.8v-16c0-4.8 3.2-8 8-8s8 3.2 8 8v16c40 1.6 73.6 19.2 75.2 19.2 3.2 1.6 6.4 1.6 8 1.6l17.6 32-27.2 120c-1.6 6.4 3.2 12.8 9.6 14.4 3.2 0 6.4 0 8-1.6 3.2-1.6 4.8-4.8 6.4-8 0 0 12.8-57.6 19.2-88l24 44.8v1.6l-33.6 97.6c-1.6 6.4 1.6 12.8 8 16 3.2 1.6 8 0 9.6-1.6 3.2-1.6 4.8-3.2 4.8-6.4 0 0 17.6-52.8 27.2-76.8l16 27.2-28.8 65.6c-3.2 6.4 0 12.8 6.4 16 3.2 1.6 8 1.6 11.2 0l4.8-4.8s14.4-30.4 22.4-49.6l14.4 25.6c-6.4 8-8 17.6-3.2 27.2 4.8 8 14.4 12.8 24 11.2l6.4 11.2c3.2 4.8 8 6.4 14.4 3.2 4.8-3.2 6.4-8 3.2-12.8l-8-16c4.8-6.4 4.8-16 0-24-4.8-6.4-11.2-11.2-19.2-11.2l-14.4-25.6c17.6 3.2 41.6 8 41.6 8 3.2 0 6.4 0 8-1.6 3.2-1.6 4.8-4.8 6.4-8 1.6-6.4-3.2-12.8-9.6-14.4l-60.8-11.2-14.4-25.6c27.2 4.8 72 14.4 72 14.4 3.2 0 6.4 0 8-1.6 3.2-1.6 4.8-4.8 6.4-8 1.6-6.4-3.2-12.8-9.6-14.4l-91.2-19.2-27.2-43.2c30.4 12.8 83.2 33.6 83.2 33.6 3.2 1.6 8 1.6 11.2 0 1.6-1.6 4.8-3.2 4.8-6.4 3.2-6.4 0-12.8-6.4-16l-112-44.8-20.8-36.8v-1.6c4.8-16 19.2-57.6 30.4-78.4l-19.2-12.8c-3.2-3.2-4.8-8-1.6-11.2 3.2-3.2 8-4.8 11.2-1.6l17.6 12.8c16-22.4 44.8-52.8 44.8-52.8 1.6-1.6 1.6-3.2 3.2-3.2l38.4 1.6 86.4 76.8c4.8 4.8 12.8 4.8 17.6-1.6 1.6-1.6 3.2-4.8 3.2-8s-1.6-6.4-4.8-9.6c0 0-41.6-36.8-65.6-57.6l49.6 1.6 67.2 76.8c4.8 4.8 12.8 4.8 17.6 1.6 3.2-3.2 4.8-6.4 4.8-9.6 0-3.2-1.6-4.8-3.2-8 0 0-35.2-40-52.8-59.2h32l41.6 56c3.2 4.8 11.2 6.4 17.6 3.2 3.2-1.6 4.8-6.4 4.8-9.6 0-3.2 0-4.8-3.2-6.4 0 0-19.2-25.6-32-41.6h28.8c3.2 8 12.8 14.4 22.4 14.4 9.6 0 17.6-6.4 22.4-14.4h16c4.8 0 9.6-4.8 9.6-9.6 3.2-4.8-1.6-9.6-6.4-9.6z m-393.6-52.8c8 16 20.8 32 32 44.8l-62.4-1.6c-3.2-19.2-12.8-35.2-27.2-46.4l36.8-60.8c4.8 20.8 11.2 46.4 20.8 64z m-99.2-62.4c20.8 0 41.6-4.8 57.6-8l-33.6 56c-9.6-4.8-20.8-6.4-32-6.4-9.6 0-19.2 1.6-27.2 4.8l-32-56c20.8 6.4 44.8 11.2 67.2 9.6z m-104 60.8c11.2-14.4 19.2-38.4 22.4-59.2l30.4 54.4c-16 11.2-27.2 27.2-30.4 46.4l-64-1.6c14.4-11.2 32-27.2 41.6-40z m-6.4 99.2c-11.2-16-24-28.8-35.2-40l62.4 1.6c1.6 22.4 12.8 41.6 30.4 54.4l-28.8 48c-4.8-19.2-14.4-44.8-28.8-64z m104 72c-22.4 0-43.2 3.2-60.8 6.4l30.4-51.2c8 3.2 17.6 4.8 28.8 4.8 9.6 0 19.2-1.6 28.8-4.8l30.4 56c-16-6.4-35.2-11.2-57.6-11.2z m102.4-56c-9.6 14.4-19.2 38.4-25.6 59.2l-32-57.6c16-12.8 27.2-30.4 30.4-51.2l65.6 1.6c-12.8 12.8-28.8 33.6-38.4 48z" p-id="3402" fill="#1296db"></path><path d="M523.2 385.6c4.8 0 8-3.2 8-8V352l40-28.8c3.2-3.2 4.8-8 1.6-11.2-3.2-3.2-8-4.8-11.2-1.6 0 0-19.2 14.4-32 22.4v-24l33.6-27.2c3.2-3.2 3.2-8 1.6-11.2-3.2-3.2-8-3.2-11.2-1.6 0 0-14.4 11.2-24 19.2v-48l16-20.8c11.2 17.6 20.8 35.2 20.8 35.2 1.6 3.2 6.4 4.8 11.2 3.2 3.2-1.6 4.8-6.4 3.2-9.6L560 212.8h35.2c4.8 0 8-3.2 8-8s-3.2-8-8-8h-30.4l19.2-25.6c3.2-3.2 1.6-8-1.6-11.2-3.2-3.2-8-1.6-11.2 1.6l-22.4 28.8-17.6-30.4V142.4l48-46.4c3.2-3.2 3.2-8 0-11.2-3.2-3.2-8-3.2-11.2 0 0 0-24 22.4-36.8 35.2v-80c0-4.8-3.2-8-8-8s-8 3.2-8 8v76.8c-11.2-14.4-28.8-33.6-28.8-33.6-3.2-3.2-8-3.2-11.2-1.6-3.2 3.2-3.2 8-1.6 11.2l40 49.6v19.2L494.4 192c-16-19.2-30.4-36.8-30.4-36.8-3.2-3.2-8-3.2-11.2-1.6-3.2 3.2-4.8 8-1.6 11.2l25.6 32h-32c-4.8 0-8 3.2-8 8s3.2 8 8 8H480l-20.8 30.4c-1.6 3.2-1.6 8 1.6 11.2 3.2 1.6 8 1.6 11.2-1.6 0 0 9.6-14.4 22.4-32l19.2 25.6V288c-11.2-9.6-25.6-24-25.6-24-3.2-3.2-8-3.2-11.2 0-3.2 3.2-3.2 8 0 11.2l36.8 33.6v24c-11.2-9.6-28.8-25.6-28.8-25.6-3.2-3.2-8-3.2-11.2 0-3.2 3.2-3.2 8 0 11.2L512 352v25.6c3.2 4.8 6.4 8 11.2 8z m6.4-193.6c1.6 4.8 4.8 8 8 12.8-3.2 3.2-4.8 6.4-8 9.6V192z m-25.6 12.8c3.2-6.4 8-11.2 11.2-16v28.8c-3.2-3.2-8-8-11.2-12.8zM636.8 462.4c1.6 3.2 8 4.8 11.2 1.6l14.4-9.6 6.4-4.8 46.4 17.6c4.8 1.6 8 0 9.6-4.8 1.6-3.2 0-8-4.8-9.6 0 0-22.4-8-36.8-12.8l20.8-12.8 41.6 12.8c4.8 1.6 8-1.6 9.6-4.8 1.6-4.8-1.6-8-4.8-9.6 0 0-17.6-4.8-28.8-9.6l43.2-27.2 27.2 1.6c-9.6 19.2-19.2 35.2-19.2 35.2-1.6 3.2 0 8 3.2 9.6 3.2 1.6 8 0 11.2-3.2l19.2-35.2 19.2 28.8c1.6 3.2 8 4.8 11.2 1.6 3.2-1.6 4.8-6.4 1.6-11.2l-17.6-25.6 32 1.6c4.8 0 8-3.2 8-6.4 0-4.8-3.2-8-8-8 0 0-17.6-1.6-36.8-1.6l16-32 16-11.2 65.6 14.4c4.8 1.6 8-1.6 9.6-6.4 1.6-4.8-1.6-8-6.4-9.6 0 0-32-6.4-51.2-11.2l68.8-43.2c3.2-1.6 4.8-6.4 1.6-11.2-1.6-3.2-8-4.8-11.2-1.6l-65.6 41.6c4.8-17.6 14.4-41.6 14.4-41.6 1.6-4.8-1.6-8-4.8-9.6-4.8-1.6-8 1.6-9.6 4.8L840 320l-17.6 11.2H784l16-44.8c1.6-3.2-1.6-8-4.8-9.6s-8 0-9.6 4.8l-12.8 38.4-17.6-25.6c-1.6-3.2-6.4-4.8-11.2-1.6-3.2 1.6-4.8 6.4-1.6 11.2l19.2 27.2h-36.8c-4.8 0-8 3.2-8 8s3.2 8 8 8h40l-9.6 30.4-40 25.6c3.2-14.4 6.4-35.2 6.4-35.2 0-4.8-1.6-8-6.4-9.6-4.8 0-8 1.6-9.6 6.4l-8 48-19.2 12.8c1.6-14.4 6.4-36.8 6.4-36.8 0-4.8-1.6-8-6.4-8-4.8 0-8 1.6-9.6 6.4l-8 51.2-6.4 4.8-14.4 9.6c-4.8 1.6-4.8 6.4-3.2 9.6zM800 376h-12.8l19.2-12.8c-1.6 3.2-3.2 8-6.4 12.8z m-17.6-28.8h19.2l-25.6 16c3.2-4.8 4.8-9.6 6.4-16zM627.2 569.6c-3.2 3.2-1.6 8 1.6 11.2l19.2 12.8 1.6 1.6v49.6c0 4.8 3.2 8 8 8s8-3.2 8-8v-38.4l19.2 14.4 3.2 41.6c0 4.8 4.8 8 8 6.4 4.8 0 8-3.2 8-8 0 0-1.6-17.6-1.6-30.4l41.6 28.8 8 24c-20.8-1.6-40-3.2-40-3.2-4.8 0-8 3.2-8 6.4 0 4.8 3.2 8 6.4 8l40 4.8-20.8 27.2c-3.2 3.2-1.6 8 1.6 11.2 3.2 3.2 8 1.6 11.2-1.6l17.6-24 9.6 30.4c1.6 4.8 6.4 6.4 9.6 4.8 4.8-1.6 6.4-4.8 4.8-9.6 0 0-4.8-16-11.2-35.2l36.8 3.2 16 11.2 9.6 65.6c0 4.8 4.8 6.4 9.6 6.4s8-4.8 6.4-8c0 0-4.8-32-8-49.6l67.2 46.4c3.2 3.2 8 1.6 11.2-1.6 3.2-3.2 1.6-8-1.6-11.2l-64-44.8c17.6-1.6 44.8-3.2 44.8-3.2 4.8 0 8-3.2 8-8s-3.2-8-8-6.4l-64 4.8-16-11.2-12.8-33.6c24-1.6 48-1.6 48-1.6 4.8 0 8-3.2 8-8s-3.2-8-8-8l-41.6 1.6 17.6-25.6c3.2-3.2 1.6-8-1.6-11.2-3.2-3.2-8-1.6-11.2 1.6L800 638.4l-16-35.2c-1.6-3.2-6.4-6.4-9.6-4.8-4.8 1.6-6.4 6.4-4.8 9.6 0 0 6.4 17.6 14.4 35.2l-32 1.6-38.4-27.2c14.4-3.2 35.2-8 35.2-8 4.8-1.6 6.4-4.8 6.4-9.6-1.6-4.8-4.8-6.4-9.6-6.4l-49.6 9.6-19.2-12.8c14.4-3.2 36.8-8 36.8-8 4.8-1.6 6.4-4.8 6.4-9.6-1.6-4.8-4.8-6.4-9.6-6.4l-51.2 11.2-3.2 1.6-17.6-12.8c-4.8-1.6-9.6-1.6-11.2 3.2z m161.6 89.6c3.2 6.4 4.8 12.8 6.4 17.6l-24-16c6.4-1.6 11.2-1.6 17.6-1.6z m-4.8 27.2c-4.8 0-9.6-1.6-16-1.6-1.6-4.8-3.2-8-3.2-11.2l19.2 12.8zM403.2 444.8c3.2-3.2 1.6-8-1.6-11.2l-9.6-6.4-12.8-9.6-3.2-49.6c0-4.8-4.8-8-8-6.4-4.8 0-8 4.8-6.4 8 0 0 1.6 22.4 3.2 36.8l-19.2-14.4-4.8-49.6c0-4.8-4.8-8-8-6.4-4.8 0-8 4.8-6.4 8 0 0 1.6 20.8 3.2 35.2L291.2 352l-8-30.4c20.8 1.6 40 1.6 40 1.6 4.8 0 8-3.2 8-8s-3.2-8-8-8l-36.8-1.6 20.8-27.2c1.6-1.6 1.6-1.6 1.6-3.2l-16-3.2-19.2 24-11.2-40c-1.6-4.8-4.8-6.4-9.6-4.8-4.8 1.6-6.4 4.8-4.8 9.6l12.8 44.8L224 304l-16-11.2-16-60.8c-1.6-4.8-4.8-6.4-9.6-4.8-4.8 1.6-6.4 4.8-6.4 9.6 0 0 6.4 25.6 11.2 43.2l-62.4-46.4c-3.2-3.2-8-1.6-11.2 1.6-3.2 3.2-1.6 8 1.6 11.2l65.6 48c-19.2 3.2-51.2 8-51.2 8-4.8 0-6.4 4.8-6.4 8 0 4.8 4.8 6.4 9.6 6.4l67.2-9.6 16 11.2 14.4 32h-36.8c-4.8 0-8 3.2-8 8s3.2 8 8 8h32l-19.2 24c-3.2 3.2-1.6 8 1.6 11.2 3.2 3.2 8 1.6 11.2-1.6l20.8-27.2 16 36.8c1.6 3.2 6.4 6.4 9.6 3.2 3.2-1.6 6.4-6.4 3.2-9.6 0 0-8-17.6-16-36.8h27.2l41.6 30.4c-12.8 3.2-30.4 8-30.4 8-4.8 1.6-6.4 4.8-6.4 9.6 1.6 4.8 4.8 6.4 9.6 4.8l41.6-9.6 19.2 14.4c-14.4 4.8-36.8 11.2-36.8 11.2-4.8 1.6-6.4 4.8-4.8 9.6 1.6 4.8 6.4 6.4 9.6 4.8l48-14.4 12.8 9.6 8 6.4c3.2-1.6 8-1.6 11.2-6.4z m-156.8-96c-1.6-4.8-4.8-9.6-6.4-14.4l19.2 14.4h-12.8z m0-27.2c6.4 0 12.8 0 19.2 1.6 1.6 6.4 3.2 11.2 4.8 16l-24-17.6zM403.2 566.4c-1.6-3.2-6.4-4.8-11.2-3.2l-14.4 8-8 4.8-49.6-17.6c-4.8-1.6-8 0-9.6 4.8-1.6 3.2 0 8 4.8 9.6 0 0 22.4 8 36.8 12.8l-20.8 11.2-48-16c-4.8-1.6-8 0-9.6 4.8-1.6 3.2 1.6 8 4.8 9.6l33.6 11.2-41.6 22.4-32-4.8c9.6-17.6 17.6-33.6 17.6-33.6 1.6-3.2 0-8-3.2-9.6-3.2-1.6-8 0-11.2 3.2l-17.6 32-16-28.8c-1.6-1.6-3.2-3.2-4.8-3.2l-9.6 6.4c0 1.6 0 3.2 1.6 3.2l14.4 27.2-41.6-6.4c-4.8 0-8 1.6-9.6 6.4 0 4.8 1.6 8 6.4 9.6 0 0 24 3.2 46.4 8l-17.6 32-17.6 9.6-64-11.2c-4.8 0-8 1.6-9.6 6.4 0 4.8 1.6 8 6.4 9.6 0 0 25.6 4.8 44.8 8l-68.8 36.8c-3.2 1.6-4.8 6.4-3.2 9.6 1.6 3.2 6.4 4.8 11.2 3.2l72-38.4c-4.8 17.6-14.4 49.6-14.4 49.6-1.6 4.8 1.6 8 4.8 9.6 4.8 1.6 8-1.6 9.6-4.8l17.6-64 17.6-9.6h36.8c-8 17.6-16 33.6-16 33.6-1.6 3.2 0 8 3.2 9.6 3.2 1.6 8 0 9.6-3.2l12.8-28.8 14.4 27.2c1.6 3.2 6.4 4.8 11.2 3.2 3.2-1.6 4.8-6.4 3.2-9.6l-16-30.4h40c4.8 0 8-3.2 8-8s-3.2-8-8-8h-40l11.2-24 44.8-24c-1.6 12.8-4.8 28.8-4.8 28.8 0 4.8 1.6 8 6.4 9.6 4.8 0 8-1.6 9.6-6.4l8-41.6 20.8-11.2c-1.6 14.4-4.8 38.4-4.8 38.4 0 4.8 3.2 8 6.4 8 4.8 0 8-3.2 8-6.4l6.4-49.6 9.6-4.8L400 576c3.2-1.6 4.8-6.4 3.2-9.6z m-172.8 70.4c6.4 1.6 12.8 1.6 17.6 3.2l-25.6 14.4c1.6-4.8 4.8-11.2 8-17.6z m17.6 28.8h-16l20.8-11.2c-1.6 3.2-3.2 8-4.8 11.2zM508.8 638.4c-4.8 0-8 3.2-8 8V672l-38.4 35.2c-3.2 3.2-3.2 8 0 11.2 3.2 3.2 8 3.2 11.2 0 0 0 17.6-16 28.8-25.6v22.4l-36.8 33.6c-3.2 3.2-3.2 8 0 11.2 3.2 3.2 8 3.2 11.2 0 0 0 14.4-14.4 25.6-24l1.6 46.4-19.2 25.6-22.4-32c-3.2-3.2-8-4.8-11.2-1.6-3.2 1.6-4.8 6.4-1.6 11.2l20.8 28.8h-33.6c-4.8 0-8 3.2-8 8s3.2 8 8 8h32l-25.6 32c-3.2 3.2-1.6 8 1.6 11.2 3.2 3.2 8 1.6 11.2-1.6 0 0 14.4-19.2 28.8-36.8l20.8 30.4v19.2l-40 49.6c-3.2 3.2-1.6 8 1.6 11.2 3.2 3.2 8 1.6 11.2-1.6 0 0 16-20.8 27.2-35.2l1.6 76.8c0 4.8 3.2 8 8 8s8-3.2 8-8l-1.6-80c14.4 12.8 38.4 35.2 38.4 35.2 3.2 3.2 8 3.2 11.2 0 3.2-3.2 3.2-8 0-11.2l-49.6-44.8v-19.2l17.6-30.4 22.4 28.8c3.2 3.2 8 3.2 11.2 1.6 3.2-3.2 3.2-8 1.6-11.2l-19.2-24h30.4c4.8 0 8-3.2 8-8s-3.2-8-8-8h-35.2l19.2-35.2c1.6-3.2 0-8-3.2-9.6-3.2-1.6-8 0-11.2 3.2 0 0-9.6 16-19.2 35.2l-16-20.8-1.6-51.2c9.6 8 24 19.2 24 19.2 3.2 3.2 8 1.6 11.2-1.6 3.2-3.2 1.6-8-1.6-11.2l-33.6-25.6v-24c12.8 8 32 22.4 32 22.4 3.2 3.2 8 1.6 11.2-1.6 3.2-3.2 1.6-8-1.6-11.2l-41.6-28.8v-24c-1.6-8-6.4-12.8-9.6-11.2z m17.6 179.2c-3.2 4.8-4.8 9.6-8 12.8v-22.4c3.2 3.2 6.4 6.4 8 9.6z m-33.6 3.2c3.2-4.8 8-9.6 11.2-12.8v28.8c-3.2-6.4-6.4-11.2-11.2-16z" p-id="3403" fill="#1296db"></path></svg>